REM DIRINDEX 1\4,1\2\5,1\2\6,1\2\7,1\3\8,1\3\9,1\3\10,1\3\11
REM DIRNAME cjc108,folder01,folder02,folder03,folder04,folder05,folder06,folder07,folder08,folder09,folder10
TITLE ""
FILE "t_j_31.mp3" MP3
  TRACK 01 AUDIO
    TITLE "8:cjc108_2480"
    INDEX 01 00:00:00
  TRACK 02 AUDIO
    TITLE "0:"
    INDEX 01 00:02:38
  TRACK 03 AUDIO
    TITLE "9:cjc108_2481"
    INDEX 01 00:03:43
  TRACK 04 AUDIO
    TITLE "0:"
    INDEX 01 00:04:50
  TRACK 05 AUDIO
    TITLE "10:cjc108_2482"
    INDEX 01 00:04:52
  TRACK 06 AUDIO
    TITLE "0:"
    INDEX 01 00:06:69
  TRACK 07 AUDIO
    TITLE "9:cjc108_2483"
    INDEX 01 00:07:37
  TRACK 08 AUDIO
    TITLE "0:"
    INDEX 01 00:08:44
  TRACK 09 AUDIO
    TITLE "10:cjc108_2484"
    INDEX 01 00:08:46
  TRACK 10 AUDIO
    TITLE "0:"
    INDEX 01 00:09:53
  TRACK 11 AUDIO
    TITLE "9:cjc108_2485"
    INDEX 01 00:10:29
  TRACK 12 AUDIO
    TITLE "0:"
    INDEX 01 00:11:44
  TRACK 13 AUDIO
    TITLE "10:cjc108_2486"
    INDEX 01 00:11:46
  TRACK 14 AUDIO
    TITLE "0:"
    INDEX 01 00:13:24
  TRACK 15 AUDIO
    TITLE "9:cjc108_2487"
    INDEX 01 00:13:73
  TRACK 16 AUDIO
    TITLE "0:"
    INDEX 01 00:15:07
  TRACK 17 AUDIO
    TITLE "10:cjc108_2488"
    INDEX 01 00:15:13
  TRACK 18 AUDIO
    TITLE "0:"
    INDEX 01 00:16:55
  TRACK 19 AUDIO
    TITLE "11:cjc108_2489"
    INDEX 01 00:17:33
  TRACK 20 AUDIO
    TITLE "0:"
    INDEX 01 00:24:45
  TRACK 21 AUDIO
    TITLE "9:cjc108_2490"
    INDEX 01 00:26:18
  TRACK 22 AUDIO
    TITLE "0:"
    INDEX 01 00:27:34
  TRACK 23 AUDIO
    TITLE "10:cjc108_2491"
    INDEX 01 00:27:36
  TRACK 24 AUDIO
    TITLE "0:"
    INDEX 01 00:29:15
  TRACK 25 AUDIO
    TITLE "9:cjc108_2492"
    INDEX 01 00:29:70
  TRACK 26 AUDIO
    TITLE "0:"
    INDEX 01 00:31:14
  TRACK 27 AUDIO
    TITLE "10:cjc108_2493"
    INDEX 01 00:31:24
  TRACK 28 AUDIO
    TITLE "0:"
    INDEX 01 00:33:46
  TRACK 29 AUDIO
    TITLE "9:cjc108_2494"
    INDEX 01 00:34:22
  TRACK 30 AUDIO
    TITLE "0:"
    INDEX 01 00:35:53
  TRACK 31 AUDIO
    TITLE "10:cjc108_2495"
    INDEX 01 00:35:64
  TRACK 32 AUDIO
    TITLE "0:"
    INDEX 01 00:38:57
  TRACK 33 AUDIO
    TITLE "9:cjc108_2496"
    INDEX 01 00:39:35
  TRACK 34 AUDIO
    TITLE "0:"
    INDEX 01 00:40:42
  TRACK 35 AUDIO
    TITLE "10:cjc108_2497"
    INDEX 01 00:40:44
  TRACK 36 AUDIO
    TITLE "0:"
    INDEX 01 00:43:33
  TRACK 37 AUDIO
    TITLE "9:cjc108_2498"
    INDEX 01 00:44:05
  TRACK 38 AUDIO
    TITLE "0:"
    INDEX 01 00:45:20
  TRACK 39 AUDIO
    TITLE "10:cjc108_2499"
    INDEX 01 00:45:22
  TRACK 40 AUDIO
    TITLE "0:"
    INDEX 01 00:46:62
  TRACK 41 AUDIO
    TITLE "9:cjc108_2500"
    INDEX 01 00:47:38
  TRACK 42 AUDIO
    TITLE "0:"
    INDEX 01 00:48:53
  TRACK 43 AUDIO
    TITLE "10:cjc108_2501"
    INDEX 01 00:48:63
  TRACK 44 AUDIO
    TITLE "0:"
    INDEX 01 00:50:29
  TRACK 45 AUDIO
    TITLE "11:cjc108_2502"
    INDEX 01 00:51:01
  TRACK 46 AUDIO
    TITLE "0:"
    INDEX 01 01:03:04
  TRACK 47 AUDIO
    TITLE "9:cjc108_2503"
    INDEX 01 01:04:58
  TRACK 48 AUDIO
    TITLE "0:"
    INDEX 01 01:05:71
  TRACK 49 AUDIO
    TITLE "10:cjc108_2504"
    INDEX 01 01:06:00
  TRACK 50 AUDIO
    TITLE "0:"
    INDEX 01 01:07:33
  TRACK 51 AUDIO
    TITLE "9:cjc108_2505"
    INDEX 01 01:08:07
  TRACK 52 AUDIO
    TITLE "0:"
    INDEX 01 01:09:09
  TRACK 53 AUDIO
    TITLE "10:cjc108_2506"
    INDEX 01 01:09:16
  TRACK 54 AUDIO
    TITLE "0:"
    INDEX 01 01:11:05
  TRACK 55 AUDIO
    TITLE "9:cjc108_2507"
    INDEX 01 01:11:54
  TRACK 56 AUDIO
    TITLE "0:"
    INDEX 01 01:12:62
  TRACK 57 AUDIO
    TITLE "10:cjc108_2508"
    INDEX 01 01:12:68
  TRACK 58 AUDIO
    TITLE "0:"
    INDEX 01 01:15:03
  TRACK 59 AUDIO
    TITLE "9:cjc108_2509"
    INDEX 01 01:15:52
  TRACK 60 AUDIO
    TITLE "0:"
    INDEX 01 01:17:10
  TRACK 61 AUDIO
    TITLE "10:cjc108_2510"
    INDEX 01 01:17:12
  TRACK 62 AUDIO
    TITLE "0:"
    INDEX 01 01:18:25
  TRACK 63 AUDIO
    TITLE "11:cjc108_2511"
    INDEX 01 01:19:01
  TRACK 64 AUDIO
    TITLE "0:"
    INDEX 01 01:27:34
  TRACK 65 AUDIO
    TITLE "9:cjc108_2512"
    INDEX 01 01:29:07
  TRACK 66 AUDIO
    TITLE "0:"
    INDEX 01 01:30:50
  TRACK 67 AUDIO
    TITLE "10:cjc108_2513"
    INDEX 01 01:30:56
  TRACK 68 AUDIO
    TITLE "0:"
    INDEX 01 01:32:49
  TRACK 69 AUDIO
    TITLE "11:cjc108_2514"
    INDEX 01 01:33:25
  TRACK 70 AUDIO
    TITLE "0:"
    INDEX 01 01:35:67
